<svg xmlns="http://www.w3.org/2000/svg" xmlns:xlink="http://www.w3.org/1999/xlink" width="500" zoomAndPan="magnify" viewBox="0 0 375 374.999991" height="500" preserveAspectRatio="xMidYMid meet" version="1.0"><defs><clipPath id="id1"><path d="M 1 7.96875 L 372 7.96875 L 372 367.21875 L 1 367.21875 Z M 1 7.96875 " clip-rule="nonzero"/></clipPath></defs><g clip-path="url(#id1)"><path fill="#f00850" d="M 369.8125 338.710938 L 302.136719 153.59375 L 281.136719 96.1875 C 171.203125 98.347656 77.265625 162.578125 36.269531 253.605469 C 30.746094 265.851562 26.164062 278.597656 22.640625 291.691406 C 19.429688 297.664062 16.429688 303.734375 13.640625 309.957031 C 13.589844 310.109375 13.484375 310.3125 13.429688 310.460938 C 9.539062 319.339844 6.117188 328.476562 3.273438 337.808594 C 3.0625 338.414062 2.851562 338.964844 2.695312 339.515625 C 2.539062 340.117188 2.378906 340.722656 2.21875 341.269531 C 0.0117188 350.90625 5.324219 360.441406 14.378906 364.757812 C 17.589844 366.3125 21.273438 367.214844 25.273438 367.214844 L 99.789062 367.214844 C 117.683594 367.214844 133.574219 356.777344 139.363281 341.222656 L 140.363281 338.613281 C 148.308594 317.132812 166.625 303.234375 186.835938 303.234375 C 196.988281 303.234375 206.671875 306.75 214.777344 312.972656 C 222.882812 319.191406 229.460938 328.125 233.410156 338.964844 L 234.195312 341.019531 C 239.878906 356.679688 255.878906 367.214844 273.824219 367.214844 L 347.5 367.214844 C 363.605469 367.214844 374.972656 352.710938 369.8125 338.710938 Z M 187.199219 7.972656 C 149.996094 7.972656 116.367188 33.617188 101.683594 73.109375 L 78.476562 135.53125 C 114.683594 81.886719 171.046875 41.796875 237.300781 24.933594 C 222.621094 14.09375 205.355469 7.972656 187.199219 7.972656 Z M 2.957031 338.613281 L 3.273438 337.808594 C 3.0625 338.414062 2.851562 338.964844 2.695312 339.515625 C 2.75 339.214844 2.851562 338.910156 2.957031 338.613281 " fill-opacity="1" fill-rule="nonzero"/></g></svg>