<svg xmlns="http://www.w3.org/2000/svg" xmlns:xlink="http://www.w3.org/1999/xlink" width="500" zoomAndPan="magnify" viewBox="0 0 375 374.999991" height="500" preserveAspectRatio="xMidYMid meet" version="1.0"><defs><g/><clipPath id="f2d72fcaf7"><path d="M 52.878906 61.289062 L 313.128906 61.289062 L 313.128906 316.289062 L 52.878906 316.289062 Z M 52.878906 61.289062 " clip-rule="nonzero"/></clipPath></defs><g clip-path="url(#f2d72fcaf7)"><path fill="#27272a" d="M 312.746094 296.3125 L 264.628906 164.769531 L 249.699219 123.976562 C 171.539062 125.511719 104.753906 171.152344 75.605469 235.835938 C 71.679688 244.539062 68.421875 253.597656 65.914062 262.902344 C 63.632812 267.144531 61.5 271.457031 59.519531 275.882812 C 59.480469 275.988281 59.40625 276.132812 59.367188 276.238281 C 56.601562 282.550781 54.167969 289.039062 52.148438 295.671875 C 51.996094 296.101562 51.847656 296.492188 51.734375 296.882812 C 51.625 297.3125 51.511719 297.742188 51.398438 298.132812 C 49.828125 304.976562 53.605469 311.753906 60.042969 314.820312 C 62.324219 315.925781 64.945312 316.566406 67.785156 316.566406 L 120.765625 316.566406 C 133.488281 316.566406 144.789062 309.148438 148.902344 298.097656 L 149.613281 296.242188 C 155.261719 280.980469 168.285156 271.101562 182.652344 271.101562 C 189.871094 271.101562 196.757812 273.601562 202.519531 278.023438 C 208.28125 282.441406 212.960938 288.789062 215.765625 296.492188 L 216.324219 297.953125 C 220.367188 309.082031 231.742188 316.566406 244.5 316.566406 L 296.882812 316.566406 C 308.328125 316.566406 316.410156 306.261719 312.746094 296.3125 Z M 182.914062 61.292969 C 156.460938 61.292969 132.550781 79.515625 122.113281 107.578125 L 105.613281 151.933594 C 131.355469 113.816406 171.425781 85.324219 218.53125 73.34375 C 208.09375 65.640625 195.820312 61.292969 182.914062 61.292969 Z M 51.921875 296.242188 L 52.148438 295.671875 C 51.996094 296.101562 51.847656 296.492188 51.734375 296.882812 C 51.773438 296.671875 51.847656 296.457031 51.921875 296.242188 " fill-opacity="1" fill-rule="nonzero"/></g><g fill="#000000" fill-opacity="1"><g transform="translate(155.333909, 302.214452)"><g><path d="M 0.109375 -0.46875 L -6 -1.90625 L -5.703125 -3.15625 L -3.609375 -3.375 C -3.535156 -3.382812 -3.457031 -3.390625 -3.375 -3.390625 C -3.300781 -3.390625 -3.226562 -3.390625 -3.15625 -3.390625 C -3.09375 -3.390625 -3.023438 -3.382812 -2.953125 -3.375 L -2.9375 -3.421875 C -3.007812 -3.453125 -3.070312 -3.488281 -3.125 -3.53125 C -3.1875 -3.550781 -3.253906 -3.578125 -3.328125 -3.609375 C -3.398438 -3.648438 -3.46875 -3.691406 -3.53125 -3.734375 L -5.3125 -4.796875 L -5.015625 -6.078125 L 1.09375 -4.640625 L 0.859375 -3.6875 L -3.109375 -4.625 C -3.234375 -4.65625 -3.363281 -4.691406 -3.5 -4.734375 C -3.632812 -4.773438 -3.765625 -4.816406 -3.890625 -4.859375 C -4.015625 -4.898438 -4.144531 -4.941406 -4.28125 -4.984375 L -4.296875 -4.921875 C -4.179688 -4.859375 -4.066406 -4.796875 -3.953125 -4.734375 C -3.847656 -4.679688 -3.742188 -4.628906 -3.640625 -4.578125 C -3.535156 -4.523438 -3.429688 -4.46875 -3.328125 -4.40625 L -1.984375 -3.640625 L -2.1875 -2.75 L -3.75 -2.609375 C -3.863281 -2.609375 -3.976562 -2.609375 -4.09375 -2.609375 C -4.21875 -2.609375 -4.335938 -2.601562 -4.453125 -2.59375 C -4.578125 -2.601562 -4.707031 -2.613281 -4.84375 -2.625 L -4.859375 -2.53125 C -4.722656 -2.519531 -4.582031 -2.507812 -4.4375 -2.5 C -4.3125 -2.476562 -4.175781 -2.457031 -4.03125 -2.4375 C -3.894531 -2.414062 -3.765625 -2.390625 -3.640625 -2.359375 L 0.328125 -1.421875 Z M 0.109375 -0.46875 "/></g></g></g><g fill="#000000" fill-opacity="1"><g transform="translate(156.457602, 297.342292)"><g><path d="M 1.125 -2.359375 C 0.875 -1.785156 0.523438 -1.40625 0.078125 -1.21875 C -0.367188 -1.03125 -0.863281 -1.054688 -1.40625 -1.296875 L -5.5 -3.09375 L -5.0625 -4.09375 L -0.984375 -2.296875 C -0.710938 -2.171875 -0.460938 -2.144531 -0.234375 -2.21875 C -0.015625 -2.289062 0.148438 -2.460938 0.265625 -2.734375 C 0.378906 -3.003906 0.390625 -3.242188 0.296875 -3.453125 C 0.203125 -3.671875 0.0195312 -3.84375 -0.25 -3.96875 L -4.328125 -5.765625 L -3.890625 -6.765625 L 0.203125 -4.96875 C 0.742188 -4.726562 1.097656 -4.378906 1.265625 -3.921875 C 1.429688 -3.460938 1.382812 -2.941406 1.125 -2.359375 Z M 1.125 -2.359375 "/></g></g></g><g fill="#000000" fill-opacity="1"><g transform="translate(158.446455, 292.754792)"><g><path d="M -4.21875 -4.984375 L -2.125 -3.5625 L -1.15625 -5 L -3.25 -6.421875 L -2.640625 -7.328125 L 2.5625 -3.796875 L 1.953125 -2.890625 L -0.328125 -4.4375 L -1.296875 -3 L 0.984375 -1.453125 L 0.375 -0.546875 L -4.828125 -4.078125 Z M -4.21875 -4.984375 "/></g></g></g><g fill="#000000" fill-opacity="1"><g transform="translate(161.234488, 288.604185)"><g><path d="M 0.140625 -0.140625 L -3.125 -5.765625 L -2.09375 -6.8125 L 3.515625 -3.578125 L 2.734375 -2.765625 L 1.34375 -3.609375 L 0.078125 -2.328125 L 0.9375 -0.953125 Z M -0.390625 -3.078125 L 0.59375 -4.078125 L -1.390625 -5.28125 C -1.472656 -5.332031 -1.554688 -5.382812 -1.640625 -5.4375 C -1.734375 -5.5 -1.816406 -5.554688 -1.890625 -5.609375 C -1.960938 -5.671875 -2.03125 -5.722656 -2.09375 -5.765625 L -2.125 -5.734375 C -2.070312 -5.679688 -2.023438 -5.609375 -1.984375 -5.515625 C -1.921875 -5.453125 -1.859375 -5.378906 -1.796875 -5.296875 C -1.734375 -5.210938 -1.675781 -5.125 -1.625 -5.03125 Z M -0.390625 -3.078125 "/></g></g></g><g fill="#000000" fill-opacity="1"><g transform="translate(164.729187, 285.028178)"><g><path d="M 0.390625 -0.28125 L -3.203125 -5.421875 L -2.140625 -6.15625 L -0.4375 -4.921875 C -0.382812 -4.890625 -0.328125 -4.84375 -0.265625 -4.78125 C -0.203125 -4.71875 -0.15625 -4.664062 -0.125 -4.625 C -0.0625 -4.582031 -0.00390625 -4.535156 0.046875 -4.484375 L 0.09375 -4.515625 C 0.0625 -4.585938 0.0351562 -4.65625 0.015625 -4.71875 C -0.015625 -4.769531 -0.0390625 -4.835938 -0.0625 -4.921875 C -0.09375 -5.003906 -0.117188 -5.078125 -0.140625 -5.140625 L -0.765625 -7.125 L 0.3125 -7.875 L 3.90625 -2.734375 L 3.09375 -2.171875 L 0.75 -5.515625 C 0.6875 -5.617188 0.617188 -5.734375 0.546875 -5.859375 C 0.472656 -5.984375 0.410156 -6.101562 0.359375 -6.21875 C 0.273438 -6.34375 0.195312 -6.460938 0.125 -6.578125 L 0.0625 -6.53125 C 0.113281 -6.414062 0.164062 -6.289062 0.21875 -6.15625 C 0.25 -6.050781 0.285156 -5.941406 0.328125 -5.828125 C 0.378906 -5.710938 0.421875 -5.601562 0.453125 -5.5 L 0.9375 -4.03125 L 0.203125 -3.515625 L -1.046875 -4.453125 C -1.140625 -4.515625 -1.226562 -4.585938 -1.3125 -4.671875 C -1.40625 -4.753906 -1.492188 -4.832031 -1.578125 -4.90625 C -1.679688 -5 -1.78125 -5.09375 -1.875 -5.1875 L -1.953125 -5.125 C -1.847656 -5.019531 -1.742188 -4.921875 -1.640625 -4.828125 C -1.554688 -4.722656 -1.46875 -4.613281 -1.375 -4.5 C -1.289062 -4.382812 -1.21875 -4.273438 -1.15625 -4.171875 L 1.1875 -0.828125 Z M 0.390625 -0.28125 "/></g></g></g><g fill="#000000" fill-opacity="1"><g transform="translate(168.814572, 282.145426)"><g><path d="M 0.4375 -0.203125 L -2.171875 -5.921875 L -1 -6.453125 L 0.453125 -4.90625 C 0.515625 -4.863281 0.566406 -4.8125 0.609375 -4.75 C 0.648438 -4.6875 0.691406 -4.628906 0.734375 -4.578125 C 0.773438 -4.515625 0.816406 -4.453125 0.859375 -4.390625 L 0.921875 -4.421875 C 0.898438 -4.484375 0.882812 -4.554688 0.875 -4.640625 C 0.851562 -4.703125 0.835938 -4.769531 0.828125 -4.84375 C 0.816406 -4.925781 0.804688 -5 0.796875 -5.0625 L 0.53125 -7.15625 L 1.734375 -7.703125 L 4.34375 -1.984375 L 3.4375 -1.5625 L 1.75 -5.265625 C 1.695312 -5.378906 1.644531 -5.503906 1.59375 -5.640625 C 1.539062 -5.785156 1.5 -5.921875 1.46875 -6.046875 C 1.414062 -6.179688 1.367188 -6.3125 1.328125 -6.4375 L 1.25 -6.40625 C 1.269531 -6.28125 1.296875 -6.148438 1.328125 -6.015625 C 1.335938 -5.910156 1.351562 -5.796875 1.375 -5.671875 C 1.40625 -5.554688 1.429688 -5.441406 1.453125 -5.328125 L 1.65625 -3.796875 L 0.828125 -3.421875 L -0.234375 -4.5625 C -0.296875 -4.65625 -0.363281 -4.75 -0.4375 -4.84375 C -0.519531 -4.9375 -0.597656 -5.023438 -0.671875 -5.109375 C -0.742188 -5.210938 -0.816406 -5.316406 -0.890625 -5.421875 L -0.984375 -5.390625 C -0.910156 -5.285156 -0.832031 -5.164062 -0.75 -5.03125 C -0.6875 -4.925781 -0.617188 -4.804688 -0.546875 -4.671875 C -0.472656 -4.546875 -0.410156 -4.425781 -0.359375 -4.3125 L 1.328125 -0.609375 Z M 0.4375 -0.203125 "/></g></g></g><g fill="#000000" fill-opacity="1"><g transform="translate(173.355132, 280.051598)"><g><path d="M 0.203125 -0.046875 L 0.3125 -6.5625 L 1.75 -6.90625 L 4.859375 -1.21875 L 3.78125 -0.9375 L 3.015625 -2.390625 L 1.265625 -1.9375 L 1.28125 -0.328125 Z M 1.25 -2.828125 L 2.625 -3.15625 L 1.5625 -5.21875 C 1.519531 -5.320312 1.472656 -5.421875 1.421875 -5.515625 C 1.378906 -5.609375 1.34375 -5.695312 1.3125 -5.78125 C 1.28125 -5.863281 1.25 -5.941406 1.21875 -6.015625 L 1.171875 -6 C 1.179688 -5.925781 1.1875 -5.84375 1.1875 -5.75 C 1.195312 -5.65625 1.207031 -5.554688 1.21875 -5.453125 C 1.226562 -5.359375 1.226562 -5.253906 1.21875 -5.140625 Z M 1.25 -2.828125 "/></g></g></g><g fill="#000000" fill-opacity="1"><g transform="translate(178.200168, 278.816163)"><g><path d="M 2.515625 -1.15625 C 2.828125 -1.175781 3.066406 -1.28125 3.234375 -1.46875 C 3.410156 -1.664062 3.488281 -1.914062 3.46875 -2.21875 L 3.328125 -4.5 C 3.304688 -4.789062 3.195312 -5.019531 3 -5.1875 C 2.8125 -5.363281 2.5625 -5.441406 2.25 -5.421875 L 1.40625 -5.375 L 1.671875 -1.109375 Z M 0.640625 -0.046875 L 0.25 -6.3125 L 2.1875 -6.421875 C 2.5 -6.441406 2.789062 -6.410156 3.0625 -6.328125 C 3.332031 -6.242188 3.5625 -6.125 3.75 -5.96875 C 3.9375 -5.8125 4.085938 -5.613281 4.203125 -5.375 C 4.328125 -5.132812 4.398438 -4.867188 4.421875 -4.578125 L 4.5625 -2.296875 C 4.582031 -1.992188 4.546875 -1.71875 4.453125 -1.46875 C 4.367188 -1.21875 4.242188 -0.992188 4.078125 -0.796875 C 3.910156 -0.609375 3.695312 -0.457031 3.4375 -0.34375 C 3.175781 -0.238281 2.890625 -0.175781 2.578125 -0.15625 Z M 0.640625 -0.046875 "/></g></g></g><g fill="#000000" fill-opacity="1"><g transform="translate(183.188931, 278.480097)"><g/></g></g><g fill="#000000" fill-opacity="1"><g transform="translate(188.155886, 279.054581)"><g><path d="M 0.1875 0.0625 L 3.6875 -5.4375 L 5.09375 -5 L 4.78125 1.484375 L 3.71875 1.15625 L 3.828125 -0.453125 L 2.09375 -1 L 1.265625 0.390625 Z M 2.53125 -1.765625 L 3.875 -1.34375 L 4.046875 -3.640625 C 4.054688 -3.753906 4.066406 -3.863281 4.078125 -3.96875 C 4.085938 -4.070312 4.097656 -4.164062 4.109375 -4.25 C 4.128906 -4.332031 4.148438 -4.421875 4.171875 -4.515625 L 4.125 -4.53125 C 4.09375 -4.445312 4.050781 -4.367188 4 -4.296875 C 3.96875 -4.210938 3.925781 -4.125 3.875 -4.03125 C 3.832031 -3.9375 3.78125 -3.84375 3.71875 -3.75 Z M 2.53125 -1.765625 "/></g></g></g><g fill="#000000" fill-opacity="1"><g transform="translate(192.936211, 280.520519)"><g/></g></g><g fill="#000000" fill-opacity="1"><g transform="translate(197.371335, 282.82928)"><g><path d="M 1.984375 1.6875 C 1.742188 1.5 1.546875 1.289062 1.390625 1.0625 C 1.242188 0.832031 1.144531 0.597656 1.09375 0.359375 C 1.050781 0.128906 1.050781 -0.0976562 1.09375 -0.328125 C 1.144531 -0.566406 1.25 -0.796875 1.40625 -1.015625 L 2.28125 -0.328125 C 2.132812 -0.117188 2.085938 0.0976562 2.140625 0.328125 C 2.203125 0.554688 2.359375 0.769531 2.609375 0.96875 C 2.859375 1.164062 3.097656 1.257812 3.328125 1.25 C 3.554688 1.25 3.75 1.148438 3.90625 0.953125 C 4.039062 0.785156 4.097656 0.597656 4.078125 0.390625 C 4.066406 0.191406 3.992188 -0.0195312 3.859375 -0.25 L 3.453125 -0.796875 C 2.796875 -1.691406 2.757812 -2.515625 3.34375 -3.265625 C 3.507812 -3.460938 3.691406 -3.617188 3.890625 -3.734375 C 4.097656 -3.847656 4.316406 -3.910156 4.546875 -3.921875 C 4.773438 -3.929688 5.007812 -3.894531 5.25 -3.8125 C 5.5 -3.726562 5.753906 -3.582031 6.015625 -3.375 C 6.472656 -3.019531 6.75 -2.609375 6.84375 -2.140625 C 6.945312 -1.671875 6.84375 -1.21875 6.53125 -0.78125 L 5.65625 -1.46875 C 5.8125 -1.65625 5.863281 -1.859375 5.8125 -2.078125 C 5.757812 -2.296875 5.625 -2.488281 5.40625 -2.65625 C 5.175781 -2.832031 4.957031 -2.914062 4.75 -2.90625 C 4.539062 -2.894531 4.367188 -2.804688 4.234375 -2.640625 C 3.960938 -2.304688 3.984375 -1.925781 4.296875 -1.5 L 4.71875 -0.921875 C 5.039062 -0.472656 5.207031 -0.0390625 5.21875 0.375 C 5.226562 0.800781 5.085938 1.207031 4.796875 1.59375 C 4.628906 1.800781 4.4375 1.960938 4.21875 2.078125 C 4 2.191406 3.769531 2.25 3.53125 2.25 C 3.289062 2.257812 3.035156 2.21875 2.765625 2.125 C 2.503906 2.039062 2.242188 1.894531 1.984375 1.6875 Z M 1.984375 1.6875 "/></g></g></g><g fill="#000000" fill-opacity="1"><g transform="translate(201.314054, 285.904262)"><g/></g></g><g fill="#000000" fill-opacity="1"><g transform="translate(204.633585, 289.643432)"><g><path d="M 0.375 0.609375 L 1.1875 0.125 L 1.875 1.28125 L 5.640625 -0.96875 L 4.953125 -2.125 L 5.765625 -2.609375 L 7.703125 0.640625 L 6.890625 1.125 L 6.203125 -0.015625 L 2.4375 2.234375 L 3.125 3.375 L 2.3125 3.859375 Z M 0.375 0.609375 "/></g></g></g><g fill="#000000" fill-opacity="1"><g transform="translate(207.219738, 293.922748)"><g/></g></g><g fill="#000000" fill-opacity="1"><g transform="translate(208.98673, 298.600192)"><g><path d="M 6.3125 -0.40625 L 7 3.484375 L 6.015625 3.65625 L 5.515625 0.828125 L 3.90625 1.109375 L 4.359375 3.71875 L 3.375 3.890625 L 2.921875 1.296875 L 0.3125 1.765625 L 0.125 0.6875 Z M 6.3125 -0.40625 "/></g></g></g></svg>